<svg width="400" height="400" viewBox="0 0 400 400" xmlns="http://www.w3.org/2000/svg">
  <defs>
    <linearGradient id="bgGrad" x1="0%" y1="0%" x2="100%" y2="100%">
      <stop offset="0%" style="stop-color:#2563eb;stop-opacity:1" />
      <stop offset="100%" style="stop-color:#1e40af;stop-opacity:1" />
    </linearGradient>
  </defs>

  <!-- Background -->
  <rect width="400" height="400" rx="20" fill="url(#bgGrad)"/>

  <!-- Accent dots -->
  <circle cx="340" cy="60" r="6" fill="rgba(255,255,255,0.3)"/>
  <circle cx="360" cy="60" r="6" fill="rgba(255,255,255,0.3)"/>
  <circle cx="380" cy="60" r="6" fill="rgba(255,255,255,0.3)"/>

  <!-- Building icon background -->
  <rect x="160" y="120" width="80" height="80" rx="12" fill="white"/>

  <!-- Building shape -->
  <rect x="175" y="135" width="50" height="50" rx="8" fill="#2563eb"/>

  <!-- Building windows -->
  <rect x="185" y="145" width="8" height="4" fill="white"/>
  <rect x="185" y="155" width="8" height="4" fill="white"/>
  <rect x="185" y="165" width="8" height="4" fill="white"/>
  <rect x="185" y="175" width="8" height="4" fill="white"/>

  <rect x="207" y="145" width="8" height="4" fill="white"/>
  <rect x="207" y="155" width="8" height="4" fill="white"/>
  <rect x="207" y="165" width="8" height="4" fill="white"/>
  <rect x="207" y="175" width="8" height="4" fill="white"/>

  <!-- Title -->
  <text x="200" y="250" font-family="Arial, sans-serif" font-size="36" font-weight="700" fill="white" text-anchor="middle">GVHS Connect</text>

  <!-- Subtitle -->
  <text x="200" y="280" font-family="Arial, sans-serif" font-size="18" font-weight="500" fill="white" text-anchor="middle" opacity="0.9">Career Network</text>
</svg>